# xmcd
#
# Track frame offsets: 
#        150
#        12718
#        29134
#        46518
#        64956
#        79930
#        98151
#        106983
#        122274
#        136339
#        154077
#        170536
#        185933
#        207493
#
# Disc length: 2943 seconds
#
# Revision: 1
# Processed by: cddbd v1.5.2PL0 Copyright (c) Steve Scherf et al.
# Submitted via: ExactAudioCopy v0.95a4
#
DISCID=c50b7d0e
DTITLE=Various Artist - Vale a Pena Ouvir de Novo - Temas de Novelas
DYEAR=2003
DGENRE=Pop - Internacional
TTITLE0=Gloria Gaynor - Every Breath You Take
TTITLE1=Glenn Miller - In The Mood
TTITLE2=Marvin Gave - I Heard It Trought The Grapevine
TTITLE3=Frank Sinatra - I've Got You Under My Skin
TTITLE4=George Mcrae - Rock Your Baby
TTITLE5=Ronda and Phil - The Closer I Get To You
TTITLE6=Boleros Emotion - La Barca
TTITLE7=David Garrick - Love Is In The Air
TTITLE8=Dave MacLean - We Said Goodbye
TTITLE9=Aaron Neville - Feelings
TTITLE10=Candi Staton - Young Hearts Run Free
TTITLE11=Dick Danello - Tu Nella Mia Vita
TTITLE12=Real Abba Gold - The Winner Take It All
TTITLE13=Billie Jo Spears - Fever
EXTD=
EXTT0=
EXTT1=
EXTT2=
EXTT3=
EXTT4=
EXTT5=
EXTT6=
EXTT7=
EXTT8=
EXTT9=
EXTT10=
EXTT11=
EXTT12=
EXTT13=
PLAYORDER=
